<svg width="32" height="32" viewBox="0 0 32 32" fill="none" xmlns="http://www.w3.org/2000/svg">
  <path
    fill-rule="evenodd"
    clip-rule="evenodd"
    d="M23.5707 3.25209C22.5362 1.86927 20.5794 1.58902 19.2 2.62614C17.8206 3.66325 17.5411 5.62499 18.5756 7.00781L24.9756 15.5625L18.5756 24.1172C17.5411 25.5 17.8206 27.4617 19.2 28.4989C20.5794 29.536 22.5362 29.2557 23.5707 27.8729L31.3756 17.4404C32.2081 16.3276 32.2081 14.7974 31.3756 13.6846L23.5707 3.25209ZM8.42927 27.8729C9.46379 29.2557 11.4206 29.536 12.8 28.4989C14.1794 27.4617 14.4589 25.5 13.4244 24.1172L7.02439 15.5625L13.4244 7.00781C14.4589 5.62499 14.1794 3.66325 12.8 2.62614C11.4206 1.58903 9.46379 1.86927 8.42927 3.25209L0.62439 13.6846C-0.20813 14.7974 -0.20813 16.3276 0.62439 17.4404L8.42927 27.8729Z"
    fill="#E11369"
  />
</svg>